<?xml version="1.0" encoding="utf-8"?>
<!-- Generator: Adobe Illustrator 25.4.1, SVG Export Plug-In . SVG Version: 6.00 Build 0)  -->
<svg version="1.1" id="Camada_1" xmlns="http://www.w3.org/2000/svg" xmlns:xlink="http://www.w3.org/1999/xlink" x="0px" y="0px"
	 viewBox="0 0 1366 768" style="enable-background:new 0 0 1366 768;" xml:space="preserve">
<style type="text/css">
	.st0{fill:none;stroke:#FF00FF;stroke-width:24;stroke-miterlimit:10;}
	.st1{fill:none;stroke:#FF00FF;stroke-width:17;stroke-miterlimit:10;}
</style>
<path class="st0" d="M823.1,277.59l-31.8-55.09h58.22c2.39,0,3.89,2.59,2.69,4.66L823.1,277.59z"/>
<line class="st0" x1="856.25" y1="351.5" x2="743" y2="155.5"/>
<path class="st0" d="M856.25,351.5"/>
<path class="st1" d="M969.5,155.5"/>
<path class="st1" d="M969.5,155.5"/>
<path class="st0" d="M743,155.5"/>
<path class="st0" d="M826.5,407.5L681,155.5h286.1c2.4,0,3.89,2.6,2.69,4.67L826.5,407.5z"/>
<path class="st0" d="M758,292.5h-54.39c-1.72,0-3.11,1.39-3.11,3.11V462.8v136.39c0,3.16,4.17,4.31,5.78,1.59L826.5,407.5"/>
<line class="st0" x1="784.23" y1="334.15" x2="700.5" y2="473.81"/>
<path class="st0" d="M490.4,277.59l31.8-55.09h-58.22c-2.39,0-3.89,2.59-2.69,4.66L490.4,277.59z"/>
<line class="st0" x1="457.25" y1="351.5" x2="570.5" y2="155.5"/>
<path class="st0" d="M457.25,351.5"/>
<path class="st0" d="M570.5,155.5"/>
<path class="st0" d="M487,407.5L628,156l101-0.5H628.24H346.4c-2.4,0-3.89,2.6-2.69,4.67L487,407.5z"/>
<path class="st0" d="M555.5,292.5h54.39c1.72,0,3.11,1.39,3.11,3.11V462.8v136.39c0,3.16-4.17,4.31-5.78,1.59L487,407.5"/>
<line class="st0" x1="529.27" y1="334.15" x2="613" y2="473.81"/>
<path class="st0" d="M809,223.5"/>
<path class="st0" d="M527,223.5"/>
<path class="st0" d="M807,156"/>
<path class="st0" d="M525,156"/>
</svg>
